<svg xmlns="http://www.w3.org/2000/svg" width="24" height="19" viewBox="0 0 24 19">
    <g fill="none" fill-rule="evenodd">
        <g fill="#444" fill-rule="nonzero">
            <g>
                <path d="M.691 14.558h3.616l7.757 4.278c.87.48 1.936-.15 1.936-1.146V1.31c0-.995-1.065-1.626-1.936-1.146L4.307 4.442H.69c-.382 0-.691.31-.691.692v8.732c0 .382.31.692.691.692zM12.618 1.44v16.12l-7.442-4.104V5.544l7.442-4.104zM1.382 5.827h2.411v7.346h-2.41V5.827zM19.24 3.176c2.012 1.689 3.12 3.935 3.12 6.324s-1.108 4.635-3.12 6.324c-.513.43-.151 1.176.58 1.176.231 0 .44-.08.59-.21C22.724 14.843 24 12.255 24 9.5c0-2.757-1.278-5.35-3.6-7.298-.32-.27-.84-.27-1.16 0-.32.269-.32.705 0 .974z" transform="translate(-300 -731) translate(300 731)"/>
                <path d="M17.365 12.804C18.419 11.922 19 10.75 19 9.5c0-1.249-.58-2.422-1.635-3.304-.313-.261-.819-.261-1.13 0-.313.262-.313.685 0 .947.752.629 1.166 1.466 1.166 2.357 0 .89-.414 1.728-1.167 2.357-.312.262-.312.685 0 .947.312.261.818.261 1.13 0z" transform="translate(-300 -731) translate(300 731)"/>
            </g>
        </g>
    </g>
</svg>
