<svg xmlns="http://www.w3.org/2000/svg" width="16" height="25" viewBox="0 0 16 25">
    <g fill="none" fill-rule="evenodd">
        <g fill="#444" fill-rule="nonzero">
            <g>
                <path d="M16 12.787c0-.435-.33-.787-.736-.787-.406 0-.736.352-.736.787 0 3.85-2.928 6.982-6.528 6.982-3.6 0-6.528-3.132-6.528-6.982 0-.435-.33-.787-.736-.787-.407 0-.736.352-.736.787 0 4.453 3.196 8.121 7.264 8.52v2.119H4.533c-.407 0-.736.352-.736.787 0 .435.33.787.736.787h6.934c.406 0 .736-.352.736-.787 0-.435-.33-.787-.736-.787H8.736v-2.12C12.804 20.909 16 17.24 16 12.787z" transform="translate(-300 -601) translate(300 601)"/>
                <path d="M8 18c2.757 0 5-2.117 5-4.72V4.72C13 2.117 10.757 0 8 0S3 2.117 3 4.72v8.56C3 15.883 5.243 18 8 18zM4.562 4.72c0-1.79 1.542-3.246 3.438-3.246 1.896 0 3.438 1.456 3.438 3.246v8.56c0 1.79-1.542 3.246-3.438 3.246-1.896 0-3.438-1.456-3.438-3.246V4.72z" transform="translate(-300 -601) translate(300 601)"/>
            </g>
        </g>
    </g>
</svg>
