<svg xmlns="http://www.w3.org/2000/svg" width="26" height="17" viewBox="0 0 26 17">
    <g fill="none" fill-rule="evenodd">
        <g fill="#444" fill-rule="nonzero" stroke="#444">
            <g>
                <g>
                    <path d="M23.75 1.338c-.154-.091-.345-.095-.502-.01L17.74 4.312v-1.79C17.739 1.13 16.602.002 15.199 0H2.542C1.14.002.002 1.13 0 2.522v9.956C.002 13.87 1.139 14.998 2.542 15H15.2c1.403-.002 2.54-1.13 2.542-2.522v-1.757l5.507 2.983c.157.085.349.082.503-.01.154-.09.249-.255.249-.433V1.771c0-.178-.095-.342-.25-.433zm-7.026 11.14c-.001.836-.684 1.513-1.526 1.514H2.542c-.842-.001-1.524-.678-1.525-1.513V2.522c0-.835.683-1.512 1.525-1.513H15.2c.842 0 1.524.678 1.525 1.513v9.957zm6.26-.067L17.74 9.572V5.46l5.242-2.838v9.79z" transform="translate(-293 -387) translate(294 386) translate(0 2)"/>
                </g>
            </g>
        </g>
    </g>
</svg>
